<?xml version="1.0"?><svg viewBox="0 0 408 408" width="433.3333333333333" height="433.3333333333333" xmlns="http://www.w3.org/2000/svg" xmlns:xlink="http://www.w3.org/1999/xlink">
 <title>Green button</title>
 <defs>
  <linearGradient id="linearGradient1702">
   <stop id="stop1703" offset="0" stop-opacity="0.690722" stop-color="#ffffff"/>
   <stop id="stop1704" offset="1" stop-opacity="0" stop-color="#ffffff"/>
  </linearGradient>
  <linearGradient id="linearGradient1697">
   <stop id="stop1698" offset="0" stop-color="#69db0e"/>
   <stop id="stop1699" offset="1" stop-color="#397607"/>
  </linearGradient>
  <linearGradient gradientUnits="userSpaceOnUse" id="linearGradient1700" x1="520.57166" x2="520.57166" xlink:href="#linearGradient1697" y1="506.28723" y2="466.2785"/>
  <radialGradient cx="522.89532" cy="481.86633" fx="522.89911" fy="473.03323" gradientUnits="userSpaceOnUse" id="radialGradient1706" r="15.301119" xlink:href="#linearGradient1702"/>
  <linearGradient gradientUnits="userSpaceOnUse" id="linearGradient1710" x1="522.94183" x2="522.94183" xlink:href="#linearGradient1697" y1="469.49918" y2="505.0845"/>
  <linearGradient gradientTransform="matrix(1.553900,0.000000,0.000000,0.643542,-1.017928,2.842171e-14)" gradientUnits="userSpaceOnUse" id="linearGradient1717" x1="213.82799" x2="214.59154" xlink:href="#linearGradient1702" y1="183.48366" y2="463.47311"/>
  <linearGradient id="linearGradient1076" x1="0.434782" x2="0.434782" xlink:href="#linearGradient1697" y1="Infinity" y2="-Infinity"/>
  <linearGradient id="linearGradient1077" x1="0.491802" x2="0.491802" xlink:href="#linearGradient1697" y1="-Infinity" y2="Infinity"/>
  <linearGradient id="linearGradient1078" x1="0.478621" x2="0.482604" xlink:href="#linearGradient1702" y1="-0.037714" y2="1.321203"/>
  <pattern id="gridpattern" patternUnits="userSpaceOnUse" x="0" y="0" width="100" height="100">
   <image id="svg_3" x="0" y="0" width="100" height="100"/>
  </pattern>
 </defs>
 <g>
  <title>Layer 1</title>
  <g id="layer1">
   <g id="g1073">
    <path d="m393.368347,203.39006a190.403656,190.403656 0 1 1 -380.807307,0a190.403656,190.403656 0 1 1 380.807307,0z" id="path1070" stroke-dashoffset="0" stroke-miterlimit="4" stroke-linejoin="round" stroke-linecap="round" stroke-width="1.364453" stroke="url(#linearGradient1077)" fill-rule="nonzero" fill="url(#linearGradient1076)"/>
    <path d="m341.278168,153.23671c44.367218,-0.966797 -12.400116,-123.152859 -135.680984,-123.802769c-134.561523,-0.68712 -162.095943,110.961353 -140.719452,112.997211c0,0 36.864166,5.062607 71.939575,14.856079c56.472656,15.930817 125.549149,-13.069244 152.768723,-17.2836c30.342529,-4.697876 47.373444,15.392426 51.692139,13.233078z" id="path1713" stroke-width="0.25000000pt" fill-rule="evenodd" fill="url(#linearGradient1078)" opacity="0.9"/>
   </g>
  </g>
  <text fill="#000000" stroke="#000000" stroke-width="0" x="86.666656" y="139.666656" id="svg_2" font-size="24" font-family="Arial" text-anchor="middle" xml:space="preserve" transform="matrix(1 0 0 1.21429 0 -31.0714)"/>
 </g>
</svg>